<svg class="main-svg" xmlns="http://www.w3.org/2000/svg" xmlns:xlink="http://www.w3.org/1999/xlink" width="700" height="500" style="" viewBox="0 0 700 500"><rect x="0" y="0" width="700" height="500" style="fill: rgb(255, 255, 255); fill-opacity: 1;"/><defs id="defs-4cf9a4"><g class="clips"><clipPath id="clip4cf9a4xyplot" class="plotclip"><rect width="540" height="320"/></clipPath><clipPath class="axesclip" id="clip4cf9a4x"><rect x="80" y="0" width="540" height="500"/></clipPath><clipPath class="axesclip" id="clip4cf9a4y"><rect x="0" y="100" width="700" height="320"/></clipPath><clipPath class="axesclip" id="clip4cf9a4xy"><rect x="80" y="100" width="540" height="320"/></clipPath></g><g class="gradients"/><g class="patterns"/></defs><g class="bglayer"><rect class="bg" x="80" y="100" width="540" height="320" style="fill: rgb(229, 236, 246); fill-opacity: 1; stroke-width: 0;"/></g><g class="layer-below"><g class="imagelayer"/><g class="shapelayer"/></g><g class="cartesianlayer"><g class="subplot xy"><g class="layer-subplot"><g class="shapelayer"/><g class="imagelayer"/></g><g class="minor-gridlayer"><g class="x"/><g class="y"/></g><g class="gridlayer"><g class="x"><path class="xgrid crisp" transform="translate(138.45,0)" d="M0,100v320" style="stroke: rgb(255, 255, 255); stroke-opacity: 1; stroke-width: 1px;"/><path class="xgrid crisp" transform="translate(240.25,0)" d="M0,100v320" style="stroke: rgb(255, 255, 255); stroke-opacity: 1; stroke-width: 1px;"/><path class="xgrid crisp" transform="translate(443.85,0)" d="M0,100v320" style="stroke: rgb(255, 255, 255); stroke-opacity: 1; stroke-width: 1px;"/><path class="xgrid crisp" transform="translate(545.64,0)" d="M0,100v320" style="stroke: rgb(255, 255, 255); stroke-opacity: 1; stroke-width: 1px;"/></g><g class="y"><path class="ygrid crisp" transform="translate(0,404.7)" d="M80,0h540" style="stroke: rgb(255, 255, 255); stroke-opacity: 1; stroke-width: 1px;"/><path class="ygrid crisp" transform="translate(0,353.81)" d="M80,0h540" style="stroke: rgb(255, 255, 255); stroke-opacity: 1; stroke-width: 1px;"/><path class="ygrid crisp" transform="translate(0,302.90999999999997)" d="M80,0h540" style="stroke: rgb(255, 255, 255); stroke-opacity: 1; stroke-width: 1px;"/><path class="ygrid crisp" transform="translate(0,201.11)" d="M80,0h540" style="stroke: rgb(255, 255, 255); stroke-opacity: 1; stroke-width: 1px;"/><path class="ygrid crisp" transform="translate(0,150.21)" d="M80,0h540" style="stroke: rgb(255, 255, 255); stroke-opacity: 1; stroke-width: 1px;"/></g></g><g class="zerolinelayer"><path class="xzl zl crisp" transform="translate(342.05,0)" d="M0,100v320" style="stroke: rgb(255, 255, 255); stroke-opacity: 1; stroke-width: 2px;"/><path class="yzl zl crisp" transform="translate(0,252.01)" d="M80,0h540" style="stroke: rgb(255, 255, 255); stroke-opacity: 1; stroke-width: 2px;"/></g><g class="layer-between"><g class="shapelayer"/><g class="imagelayer"/></g><path class="xlines-below"/><path class="ylines-below"/><g class="overlines-below"/><g class="xaxislayer-below"/><g class="yaxislayer-below"/><g class="overaxes-below"/><g class="overplot"><g class="xy" transform="translate(80,100)" clip-path="url(#clip4cf9a4xyplot)"><g class="scatterlayer mlayer"><g class="trace scatter trace99952c" style="stroke-miterlimit: 2; opacity: 1;"><g class="fills"/><g class="errorbars"/><g class="lines"><path class="js-line" d="M262.05,152.01L263.96,151.18L264.02,151.12L264.89,148.97L264.9,148.87L264.16,146.14L264.09,146.03L261.92,143.93L261.79,143.85L258.04,142.76L257.86,142.75L253.74,143.46L253.55,143.53L249.92,145.85L249.76,146.01L247.15,149.43L247.03,149.65L245.46,154.66L245.43,154.94L245.61,160.1L245.67,160.39L247.31,165.05L247.46,165.33L250.3,169.37L250.53,169.62L255.17,173.32L255.49,173.51L260.99,175.74L261.36,175.84L267.59,176.51L267.99,176.49L273.69,175.61L274.09,175.5L279.65,173.16L280.03,172.94L285.06,169.19L285.39,168.87L289.54,163.81L289.8,163.41L292.72,157.26L292.88,156.79L294.24,150.39L294.29,149.88L294.19,143.1L294.13,142.57L292.27,135.26L292.08,134.75L288.73,128.32L288.41,127.85L283.57,122.16L283.14,121.76L276.98,117.16L276.46,116.85L269.8,113.83L269.22,113.64L261.89,112.01L261.26,111.94L253.57,111.86L252.92,111.92L245.18,113.46L244.54,113.66L237.11,116.84L236.51,117.17L229.73,121.92L229.2,122.38L223.41,128.57L222.98,129.14L218.8,135.89L218.48,136.54L215.6,144.12L215.4,144.84L213.93,153.75L213.88,154.51L214.17,162.95L214.27,163.72L216.19,172.12L216.44,172.87L219.98,180.91L220.38,181.61L224.95,188.33L225.47,188.96L231.87,195.42L232.51,195.96L239.42,200.77L240.16,201.19L247.92,204.78L248.73,205.08L257.13,207.3L257.99,207.45L266.78,208.2L267.68,208.2L276.6,207.4L277.49,207.24L286.28,204.87L287.14,204.56L295.51,200.64L296.32,200.17L304,194.79L304.72,194.18L311.44,187.45L312.06,186.71L317.1,179.64L317.6,178.8L321.87,170.01L322.22,169.09L324.95,159.56L325.14,158.58L326.16,149.59L326.19,148.58L325.64,138.41L325.5,137.4L323.17,127.35L322.85,126.36L319.25,117.67L318.77,116.74L313.15,107.77L312.51,106.92L306.12,99.71L305.34,98.96L297.8,92.77L296.9,92.14L288.39,87.16L287.39,86.68L278.1,83.06L277.03,82.74L267.16,80.6L266.05,80.45L255.86,79.88L254.72,79.91L244.45,80.96L243.32,81.17L233.24,83.86L232.14,84.24L222.5,88.53L221.47,89.09L212.53,94.89L211.59,95.62L203.59,102.83L202.76,103.71L195.93,112.18L195.24,113.18L189.77,122.72L189.24,123.83L185.29,134.21L184.95,135.4L182.66,146.38L182.5,147.63L181.96,158.95L182,160.21L183.25,171.59L183.49,172.85L186.55,183.99L186.99,185.21L191.81,195.84L192.44,196.98L198.93,206.82L199.74,207.85L206.82,215.71L207.78,216.63L215.96,223.46L217.05,224.25L226.19,229.9L227.39,230.53L237.33,234.87L238.61,235.32L249.15,238.24L250.49,238.51L261.43,239.92L262.81,240L275.31,239.72L276.7,239.58L287.75,237.66L289.12,237.33L299.87,233.84L301.19,233.31L311.42,228.29L312.66,227.58L322.16,221.12L323.29,220.22L331.84,212.42L332.84,211.37L340.27,202.37L341.12,201.18L347.24,191.14L347.92,189.83L352.6,178.95L353.09,177.54L356.2,166.02L356.49,164.55L357.96,152.61L358.03,151.1L357.8,138.99L357.66,137.47L355.7,125.42L355.34,123.93L351.67,112.2L351.11,110.76L345.78,99.58L345.01,98.22L338.1,87.83L337.14,86.59L328.77,77.22L327.64,76.12L317.96,67.96L316.68,67.02L305.86,60.26L304.45,59.51L292.71,54.32L291.19,53.77L278.75,50.26L277.16,49.93L264.25,48.2L262.62,48.1L249.51,48.21L247.87,48.35L236.44,49.99L234.82,50.32L222.04,53.95L220.47,54.52L209.74,59.18L208.25,59.95L198.14,65.96L196.74,66.91L186.14,75.32L184.88,76.46L175.51,86.35L174.42,87.67L166.49,98.85L165.6,100.32L159.98,111.02L159.28,112.6L155.03,123.98L154.53,125.64L151.73,137.54L151.43,139.26L150.07,153.24L150.02,155L150.47,167.36L150.65,169.12L152.66,181.4L153.06,183.13L156.62,195.12L157.23,196.81L163.13,209.92L163.98,211.51L170.66,222.26L171.71,223.73L179.74,233.61L180.97,234.95L190.22,243.79L191.63,244.97L201.97,252.62L203.52,253.63L214.81,259.95L216.48,260.75L228.53,265.64L230.3,266.23L242.95,269.57L244.78,269.94L257.82,271.68L259.69,271.81L272.91,271.9L274.8,271.8L288,270.22L289.87,269.88L302.83,266.64L304.66,266.06L317.17,261.19L318.92,260.38L330.79,253.95L332.42,252.92L343.45,245L344.95,243.77L354.94,234.49L356.29,233.07L365.08,222.55L366.24,220.96L373.68,209.36L374.64,207.64L380.59,195.13L381.33,193.29L385.69,180.07L386.19,178.14L388.87,164.4L389.13,162.42L390.06,148.39L390.07,146.37L389.23,132.26L388.98,130.25L386.37,116.3L385.87,114.32L381.49,100.74L380.75,98.83L374.67,85.84L373.69,84.03L365.99,71.85L364.78,70.17L355.58,58.99L354.16,57.48L343.57,47.5L341.96,46.16L330.15,37.55L328.38,36.42L315.51,29.33L313.61,28.43L299.89,22.98L297.87,22.32L283.51,18.62L281.42,18.22L266.63,16.34L264.5,16.21L251.67,16.1L249.53,16.2L234.58,17.85L232.46,18.22L217.77,21.74L215.7,22.38L201.5,27.75L199.52,28.65L187.93,34.67L186.05,35.79L173.39,44.4L171.66,45.75L160.13,55.93L158.58,57.49L149.75,67.36L148.37,69.09L139.47,81.79L138.31,83.69L131.99,95.45L131.04,97.47L125.31,112.03L124.62,114.16L120.74,129.39L120.33,131.6L118.56,145.01L118.38,147.27L118.17,163.11L118.29,165.38L119.71,178.94L120.07,181.19L123.6,196.78L124.25,198.97L128.84,211.93L129.73,214.05L135.75,226.48L136.86,228.5L144.24,240.23L145.58,242.12L154.23,253.02L155.77,254.75L165.6,264.67L167.34,266.23L178.24,275.04L180.14,276.41L191.99,283.99L194.04,285.15L208.87,292.33L211.05,293.23L224.46,297.87L226.74,298.52L240.62,301.66L242.96,302.06L257.16,303.67L259.54,303.81L273.88,303.85L276.28,303.73L290.59,302.18L292.96,301.79L307.07,298.68L309.39,298.03L323.12,293.36L325.37,292.46L338.55,286.29L340.69,285.14L353.16,277.53L355.17,276.15L366.76,267.18L368.62,265.58L379.2,255.36L380.87,253.56L390.29,242.2L391.76,240.22L399.91,227.84L401.16,225.7L407.92,212.46L408.93,210.19L414.21,196.24L414.97,193.86L418.7,179.36L419.19,176.91L421.32,162.03L421.53,159.53L421.95,152.01" style="vector-effect: none; fill: none; stroke: rgb(0, 0, 255); stroke-opacity: 1; stroke-width: 2px; opacity: 1;"/></g><g class="points"/><g class="text"/></g></g></g></g><g class="zerolinelayer-above"/><path class="xlines-above crisp" d="M0,0" style="fill: none;"/><path class="ylines-above crisp" d="M0,0" style="fill: none;"/><g class="overlines-above"/><g class="xaxislayer-above"><g class="xtick"><text text-anchor="middle" x="0" y="433" transform="translate(138.45,0)" style="font-family: 'Open Sans', verdana, arial, sans-serif; font-size: 12px; fill: rgb(42, 63, 95); fill-opacity: 1; white-space: pre;">−4</text></g><g class="xtick"><text text-anchor="middle" x="0" y="433" style="font-family: 'Open Sans', verdana, arial, sans-serif; font-size: 12px; fill: rgb(42, 63, 95); fill-opacity: 1; white-space: pre;" transform="translate(240.25,0)">−2</text></g><g class="xtick"><text text-anchor="middle" x="0" y="433" style="font-family: 'Open Sans', verdana, arial, sans-serif; font-size: 12px; fill: rgb(42, 63, 95); fill-opacity: 1; white-space: pre;" transform="translate(342.05,0)">0</text></g><g class="xtick"><text text-anchor="middle" x="0" y="433" style="font-family: 'Open Sans', verdana, arial, sans-serif; font-size: 12px; fill: rgb(42, 63, 95); fill-opacity: 1; white-space: pre;" transform="translate(443.85,0)">2</text></g><g class="xtick"><text text-anchor="middle" x="0" y="433" style="font-family: 'Open Sans', verdana, arial, sans-serif; font-size: 12px; fill: rgb(42, 63, 95); fill-opacity: 1; white-space: pre;" transform="translate(545.64,0)">4</text></g></g><g class="yaxislayer-above"><g class="ytick"><text text-anchor="end" x="79" y="4.199999999999999" transform="translate(0,404.7)" style="font-family: 'Open Sans', verdana, arial, sans-serif; font-size: 12px; fill: rgb(42, 63, 95); fill-opacity: 1; white-space: pre;">−3</text></g><g class="ytick"><text text-anchor="end" x="79" y="4.199999999999999" style="font-family: 'Open Sans', verdana, arial, sans-serif; font-size: 12px; fill: rgb(42, 63, 95); fill-opacity: 1; white-space: pre;" transform="translate(0,353.81)">−2</text></g><g class="ytick"><text text-anchor="end" x="79" y="4.199999999999999" style="font-family: 'Open Sans', verdana, arial, sans-serif; font-size: 12px; fill: rgb(42, 63, 95); fill-opacity: 1; white-space: pre;" transform="translate(0,302.90999999999997)">−1</text></g><g class="ytick"><text text-anchor="end" x="79" y="4.199999999999999" style="font-family: 'Open Sans', verdana, arial, sans-serif; font-size: 12px; fill: rgb(42, 63, 95); fill-opacity: 1; white-space: pre;" transform="translate(0,252.01)">0</text></g><g class="ytick"><text text-anchor="end" x="79" y="4.199999999999999" style="font-family: 'Open Sans', verdana, arial, sans-serif; font-size: 12px; fill: rgb(42, 63, 95); fill-opacity: 1; white-space: pre;" transform="translate(0,201.11)">1</text></g><g class="ytick"><text text-anchor="end" x="79" y="4.199999999999999" style="font-family: 'Open Sans', verdana, arial, sans-serif; font-size: 12px; fill: rgb(42, 63, 95); fill-opacity: 1; white-space: pre;" transform="translate(0,150.21)">2</text></g></g><g class="overaxes-above"/></g></g><g class="polarlayer"/><g class="smithlayer"/><g class="ternarylayer"/><g class="geolayer"/><g class="funnelarealayer"/><g class="pielayer"/><g class="iciclelayer"/><g class="treemaplayer"/><g class="sunburstlayer"/><g class="glimages"/><defs id="topdefs-4cf9a4"><g class="clips"/></defs><g class="layer-above"><g class="imagelayer"/><g class="shapelayer"/></g><g class="infolayer"><g class="g-gtitle"><text class="gtitle" x="35" y="50" text-anchor="start" dy="0em" style="opacity: 1; font-family: 'Open Sans', verdana, arial, sans-serif; font-size: 17px; fill: rgb(42, 63, 95); fill-opacity: 1; white-space: pre;"><tspan class="line" dy="0em" x="35" y="50">Archimedean Spiral (r = a + bt)</tspan><tspan class="line" dy="1.3em" x="35" y="50">Equal spacing between successive turns</tspan></text></g><g class="g-xtitle"><text class="xtitle" x="350" y="460.3" text-anchor="middle" style="opacity: 1; font-family: 'Open Sans', verdana, arial, sans-serif; font-size: 14px; fill: rgb(42, 63, 95); fill-opacity: 1; white-space: pre;">x</text></g><g class="g-ytitle"><text class="ytitle" transform="rotate(-90,42.146875,260)" x="42.146875" y="260" text-anchor="middle" style="opacity: 1; font-family: 'Open Sans', verdana, arial, sans-serif; font-size: 14px; fill: rgb(42, 63, 95); fill-opacity: 1; white-space: pre;">y</text></g></g></svg>