<svg class="main-svg" xmlns="http://www.w3.org/2000/svg" xmlns:xlink="http://www.w3.org/1999/xlink" width="700" height="500" style="" viewBox="0 0 700 500"><rect x="0" y="0" width="700" height="500" style="fill: rgb(255, 255, 255); fill-opacity: 1;"/><defs id="defs-93a3cc"><g class="clips"><clipPath id="clip93a3ccxyplot" class="plotclip"><rect width="540" height="320"/></clipPath><clipPath class="axesclip" id="clip93a3ccx"><rect x="80" y="0" width="540" height="500"/></clipPath><clipPath class="axesclip" id="clip93a3ccy"><rect x="0" y="100" width="700" height="320"/></clipPath><clipPath class="axesclip" id="clip93a3ccxy"><rect x="80" y="100" width="540" height="320"/></clipPath></g><g class="gradients"/><g class="patterns"/></defs><g class="bglayer"><rect class="bg" x="80" y="100" width="540" height="320" style="fill: rgb(229, 236, 246); fill-opacity: 1; stroke-width: 0;"/></g><g class="layer-below"><g class="imagelayer"/><g class="shapelayer"/></g><g class="cartesianlayer"><g class="subplot xy"><g class="layer-subplot"><g class="shapelayer"/><g class="imagelayer"/></g><g class="minor-gridlayer"><g class="x"/><g class="y"/></g><g class="gridlayer"><g class="x"><path class="xgrid crisp" transform="translate(165.53,0)" d="M0,100v320" style="stroke: rgb(255, 255, 255); stroke-opacity: 1; stroke-width: 1px;"/><path class="xgrid crisp" transform="translate(255.82,0)" d="M0,100v320" style="stroke: rgb(255, 255, 255); stroke-opacity: 1; stroke-width: 1px;"/><path class="xgrid crisp" transform="translate(436.41,0)" d="M0,100v320" style="stroke: rgb(255, 255, 255); stroke-opacity: 1; stroke-width: 1px;"/><path class="xgrid crisp" transform="translate(526.7,0)" d="M0,100v320" style="stroke: rgb(255, 255, 255); stroke-opacity: 1; stroke-width: 1px;"/><path class="xgrid crisp" transform="translate(616.99,0)" d="M0,100v320" style="stroke: rgb(255, 255, 255); stroke-opacity: 1; stroke-width: 1px;"/></g><g class="y"><path class="ygrid crisp" transform="translate(0,391.44)" d="M80,0h540" style="stroke: rgb(255, 255, 255); stroke-opacity: 1; stroke-width: 1px;"/><path class="ygrid crisp" transform="translate(0,346.28999999999996)" d="M80,0h540" style="stroke: rgb(255, 255, 255); stroke-opacity: 1; stroke-width: 1px;"/><path class="ygrid crisp" transform="translate(0,301.14)" d="M80,0h540" style="stroke: rgb(255, 255, 255); stroke-opacity: 1; stroke-width: 1px;"/><path class="ygrid crisp" transform="translate(0,210.85)" d="M80,0h540" style="stroke: rgb(255, 255, 255); stroke-opacity: 1; stroke-width: 1px;"/><path class="ygrid crisp" transform="translate(0,165.70999999999998)" d="M80,0h540" style="stroke: rgb(255, 255, 255); stroke-opacity: 1; stroke-width: 1px;"/><path class="ygrid crisp" transform="translate(0,120.56)" d="M80,0h540" style="stroke: rgb(255, 255, 255); stroke-opacity: 1; stroke-width: 1px;"/></g></g><g class="zerolinelayer"><path class="xzl zl crisp" transform="translate(346.12,0)" d="M0,100v320" style="stroke: rgb(255, 255, 255); stroke-opacity: 1; stroke-width: 2px;"/><path class="yzl zl crisp" transform="translate(0,256)" d="M80,0h540" style="stroke: rgb(255, 255, 255); stroke-opacity: 1; stroke-width: 2px;"/></g><g class="layer-between"><g class="shapelayer"/><g class="imagelayer"/></g><path class="xlines-below"/><path class="ylines-below"/><g class="overlines-below"/><g class="xaxislayer-below"/><g class="yaxislayer-below"/><g class="overaxes-below"/><g class="overplot"><g class="xy" transform="translate(80,100)" clip-path="url(#clip93a3ccxyplot)"><g class="scatterlayer mlayer"><g class="trace scatter tracea4824e" style="stroke-miterlimit: 2; opacity: 1;"><g class="fills"/><g class="errorbars"/><g class="lines"><path class="js-line" d="M266.12,156L274.4,155.22L275.05,155.01L278.9,152.93L279.27,152.62L282,149.12L282.2,148.73L283.42,144.23L283.46,143.8L283.09,139.01L282.98,138.58L281.13,133.88L280.9,133.46L277.35,128.82L277,128.47L272.06,124.7L271.6,124.44L265.55,121.88L265.01,121.72L258.17,120.62L257.58,120.6L250.94,121.03L250.33,121.14L243.66,123.03L243.06,123.27L236.67,126.62L236.11,127L230.34,131.75L229.85,132.24L224.98,138.27L224.59,138.86L220.9,145.96L220.63,146.65L218.35,154.57L218.22,155.32L217.52,163L217.52,163.78L218.38,172.43L218.54,173.22L221.14,181.76L221.45,182.52L225.76,190.6L226.23,191.3L232.16,198.55L232.77,199.16L239.44,204.77L240.16,205.27L247.86,209.7L248.68,210.08L257.2,213.13L258.08,213.37L268.11,214.98L269.04,215.04L278.44,214.8L279.39,214.69L288.76,212.77L289.69,212.5L298.73,208.91L299.61,208.47L308.02,203.27L308.81,202.67L315.6,196.7L316.3,195.97L322.13,188.91L322.72,188.07L327.86,179.12L328.3,178.18L331.86,168.33L332.13,167.31L333.94,156.85L334.03,155.79L333.99,145.02L333.89,143.94L332.23,134.27L331.96,133.21L328.75,123.82L328.31,122.8L323.6,113.93L322.99,112.98L316.87,104.88L316.12,104.03L308.71,96.92L307.82,96.2L299.29,90.28L298.29,89.7L288.84,85.16L287.74,84.73L277.59,81.71L276.43,81.46L265.82,80.07L264.62,80.01L253.82,80.3L252.61,80.43L241.89,82.45L240.71,82.77L230.33,86.49L229.21,87L219.46,92.36L218.42,93.04L209.56,99.93L208.63,100.78L200.9,109.05L200.11,110.04L194.36,118.42L193.71,119.52L188.69,129.88L188.22,131.08L184.86,142.21L184.59,143.47L183.1,153.78L183.01,155.08L183.09,166.89L183.21,168.2L184.86,178.65L185.17,179.94L188.31,190.12L188.79,191.37L194.04,202.25L194.72,203.41L201.66,213.4L202.53,214.45L210.01,222.37L211.02,223.3L220.75,230.9L221.9,231.66L231.53,237.09L232.79,237.69L243.16,241.72L244.49,242.14L255.4,244.68L256.79,244.9L268.02,245.89L269.44,245.91L280.77,245.29L282.18,245.11L293.38,242.88L294.76,242.5L305.6,238.68L306.92,238.1L317.17,232.75L318.41,231.99L327.86,225.21L328.98,224.28L337.42,216.17L338.41,215.09L345.67,205.81L346.49,204.59L352.4,194.33L353.04,192.99L357.47,181.93L357.92,180.51L360.75,168.87L361,167.39L362.16,155.39L362.2,153.88L361.65,141.78L361.47,140.27L359.2,128.3L358.81,126.83L354.85,115.23L354.26,113.82L348.67,102.85L347.87,101.52L340.75,91.39L339.77,90.19L331.24,81.12L330.09,80.06L320.32,72.25L319.03,71.36L308.19,64.98L306.78,64.27L295.08,59.46L293.58,58.96L281.26,55.83L279.69,55.55L267,54.19L265.39,54.13L252.57,54.57L250.97,54.74L238.27,57.01L236.7,57.41L224.39,61.46L222.88,62.08L211.21,67.87L209.8,68.69L199.02,76.1L197.73,77.13L189.2,84.85L188.05,86.03L179.54,96.12L178.56,97.46L172.32,107.25L171.52,108.7L165.92,120.79L165.33,122.36L161.88,133.55L161.48,135.18L159.27,148.43L159.11,150.11L158.79,163.6L158.87,165.29L160.17,177.08L160.46,178.76L163.75,191.97L164.27,193.59L169.41,206.26L170.17,207.8L176.13,218.23L177.08,219.67L185.46,230.61L186.6,231.91L195.18,240.46L196.48,241.6L206.11,249.04L207.55,250.01L218.07,256.2L219.63,256.99L230.88,261.83L232.53,262.42L244.35,265.82L246.07,266.2L258.26,268.09L260.02,268.25L272.4,268.6L274.18,268.54L286.55,267.33L288.3,267.04L300.47,264.27L302.18,263.77L315.59,258.76L317.22,258.01L328.3,252.08L329.83,251.14L340.12,243.83L341.52,242.7L350.84,234.13L352.1,232.83L360.3,223.12L361.38,221.66L368.32,210.97L369.22,209.38L374.78,197.86L375.47,196.17L379.56,184L380.03,182.23L382.56,169.6L382.81,167.78L383.74,154.89L383.76,153.04L383.06,140.1L382.85,138.25L380.52,125.46L380.08,123.65L376.15,111.2L375.48,109.46L370,97.57L369.11,95.92L362.17,84.77L361.07,83.24L352.75,73.03L351.47,71.64L341.91,62.52L340.46,61.3L329.79,53.43L328.19,52.4L316.58,45.9L314.87,45.08L302.49,40.08L300.68,39.48L287.74,36.06L285.86,35.69L272.55,33.92L270.63,33.79L257.16,33.7L255.24,33.81L241.82,35.42L239.92,35.77L226.78,39.06L224.93,39.65L212.26,44.58L210.5,45.4L198.51,51.9L196.86,52.94L185.75,60.92L184.24,62.16L174.19,71.5L172.84,72.92L164.02,83.48L162.86,85.06L155.41,96.68L154.45,98.4L148.5,110.9L147.76,112.74L143.42,125.91L142.92,127.84L140.25,141.5L140,143.47L139.06,157.4L139.06,159.39L139.88,173.37L140.13,175.35L142.71,189.15L143.2,191.1L147.51,204.5L148.24,206.38L154.21,219.17L155.18,220.94L162.73,232.92L163.91,234.56L172.93,245.52L174.32,247L184.67,256.78L186.24,258.08L197.76,266.5L199.48,267.59L212.01,274.52L213.86,275.39L227.19,280.7L229.15,281.34L243.08,284.95L245.1,285.34L259.41,287.17L261.47,287.3L275.94,287.32L278,287.2L292.4,285.4L294.44,285.01L308.53,281.41L310.51,280.77L324.07,275.42L325.96,274.53L338.78,267.5L340.54,266.38L352.41,257.77L354.03,256.43L364.74,246.38L366.18,244.85L375.58,233.5L376.82,231.79L384.74,219.32L385.76,217.47L392.06,204.07L392.84,202.1L397.43,187.98L397.96,185.92L400.74,171.3L401.01,169.18L401.94,154.29L401.93,152.16L400.98,137.23L400.72,135.1L397.89,120.37L397.36,118.3L392.7,104L391.9,102L385.47,88.37L384.43,86.49L376.32,73.74L375.05,71.99L365.38,60.34L363.89,58.76L352.81,48.39L351.13,47L338.8,38.08L336.96,36.92L323.58,29.59L321.6,28.67L309.45,23.77L307.37,23.07L292.59,19.06L290.44,18.62L275.23,16.49L273.04,16.32L257.64,16.12L255.44,16.23L242.29,17.61L240.11,17.96L225.03,21.38L222.9,22L208.34,27.3L206.3,28.18L192.48,35.28L190.57,36.42L179.5,43.87L177.72,45.21L165.89,55.38L164.3,56.94L153.81,68.54L152.42,70.3L144.65,81.25L143.45,83.15L135.94,96.94L134.99,98.98L129.97,111.5L129.25,113.64L125.15,128.87L124.71,131.08L122.75,144.48L122.54,146.73L122.11,162.57L122.2,164.83L123.43,178.38L123.76,180.63L127.06,196.18L127.67,198.38L132.05,211.31L132.9,213.43L138.69,225.83L139.77,227.85L148.2,241.45L149.52,243.31L159.61,255.77L161.16,257.46L171.03,267.07L172.76,268.58L183.64,277.07L185.53,278.38L197.31,285.63L199.33,286.74L213.99,293.53L216.15,294.37L229.34,298.69L231.58,299.29L245.19,302.14L247.48,302.49L263.67,303.92L266,303.98L282.28,303.37L284.59,303.13L298.42,300.97L300.7,300.48L314.23,296.8L316.45,296.06L329.51,290.91L331.64,289.94L346.09,282.16L348.08,280.92L359.63,272.83L361.48,271.37L372.08,262.05L373.76,260.39L383.29,249.94L384.78,248.11L393.12,236.65L394.41,234.66L401.45,222.34L402.51,220.22L408.17,207.17L408.99,204.94L413.19,191.33L413.76,189.02L416.44,175L416.76,172.64L417.88,158.38L417.94,156" style="vector-effect: none; fill: none; stroke: rgb(255, 0, 0); stroke-opacity: 1; stroke-width: 2px; opacity: 1;"/></g><g class="points"/><g class="text"/></g></g></g></g><g class="zerolinelayer-above"/><path class="xlines-above crisp" d="M0,0" style="fill: none;"/><path class="ylines-above crisp" d="M0,0" style="fill: none;"/><g class="overlines-above"/><g class="xaxislayer-above"><g class="xtick"><text text-anchor="middle" x="0" y="433" transform="translate(165.53,0)" style="font-family: 'Open Sans', verdana, arial, sans-serif; font-size: 12px; fill: rgb(42, 63, 95); fill-opacity: 1; white-space: pre;">−2</text></g><g class="xtick"><text text-anchor="middle" x="0" y="433" style="font-family: 'Open Sans', verdana, arial, sans-serif; font-size: 12px; fill: rgb(42, 63, 95); fill-opacity: 1; white-space: pre;" transform="translate(255.82,0)">−1</text></g><g class="xtick"><text text-anchor="middle" x="0" y="433" style="font-family: 'Open Sans', verdana, arial, sans-serif; font-size: 12px; fill: rgb(42, 63, 95); fill-opacity: 1; white-space: pre;" transform="translate(346.12,0)">0</text></g><g class="xtick"><text text-anchor="middle" x="0" y="433" style="font-family: 'Open Sans', verdana, arial, sans-serif; font-size: 12px; fill: rgb(42, 63, 95); fill-opacity: 1; white-space: pre;" transform="translate(436.41,0)">1</text></g><g class="xtick"><text text-anchor="middle" x="0" y="433" style="font-family: 'Open Sans', verdana, arial, sans-serif; font-size: 12px; fill: rgb(42, 63, 95); fill-opacity: 1; white-space: pre;" transform="translate(526.7,0)">2</text></g><g class="xtick"><text text-anchor="middle" x="0" y="433" style="font-family: 'Open Sans', verdana, arial, sans-serif; font-size: 12px; fill: rgb(42, 63, 95); fill-opacity: 1; white-space: pre;" transform="translate(616.99,0)">3</text></g></g><g class="yaxislayer-above"><g class="ytick"><text text-anchor="end" x="79" y="4.199999999999999" transform="translate(0,391.44)" style="font-family: 'Open Sans', verdana, arial, sans-serif; font-size: 12px; fill: rgb(42, 63, 95); fill-opacity: 1; white-space: pre;">−1.5</text></g><g class="ytick"><text text-anchor="end" x="79" y="4.199999999999999" style="font-family: 'Open Sans', verdana, arial, sans-serif; font-size: 12px; fill: rgb(42, 63, 95); fill-opacity: 1; white-space: pre;" transform="translate(0,346.28999999999996)">−1</text></g><g class="ytick"><text text-anchor="end" x="79" y="4.199999999999999" style="font-family: 'Open Sans', verdana, arial, sans-serif; font-size: 12px; fill: rgb(42, 63, 95); fill-opacity: 1; white-space: pre;" transform="translate(0,301.14)">−0.5</text></g><g class="ytick"><text text-anchor="end" x="79" y="4.199999999999999" style="font-family: 'Open Sans', verdana, arial, sans-serif; font-size: 12px; fill: rgb(42, 63, 95); fill-opacity: 1; white-space: pre;" transform="translate(0,256)">0</text></g><g class="ytick"><text text-anchor="end" x="79" y="4.199999999999999" style="font-family: 'Open Sans', verdana, arial, sans-serif; font-size: 12px; fill: rgb(42, 63, 95); fill-opacity: 1; white-space: pre;" transform="translate(0,210.85)">0.5</text></g><g class="ytick"><text text-anchor="end" x="79" y="4.199999999999999" style="font-family: 'Open Sans', verdana, arial, sans-serif; font-size: 12px; fill: rgb(42, 63, 95); fill-opacity: 1; white-space: pre;" transform="translate(0,165.70999999999998)">1</text></g><g class="ytick"><text text-anchor="end" x="79" y="4.199999999999999" style="font-family: 'Open Sans', verdana, arial, sans-serif; font-size: 12px; fill: rgb(42, 63, 95); fill-opacity: 1; white-space: pre;" transform="translate(0,120.56)">1.5</text></g></g><g class="overaxes-above"/></g></g><g class="polarlayer"/><g class="smithlayer"/><g class="ternarylayer"/><g class="geolayer"/><g class="funnelarealayer"/><g class="pielayer"/><g class="iciclelayer"/><g class="treemaplayer"/><g class="sunburstlayer"/><g class="glimages"/><defs id="topdefs-93a3cc"><g class="clips"/></defs><g class="layer-above"><g class="imagelayer"/><g class="shapelayer"/></g><g class="infolayer"><g class="g-gtitle"><text class="gtitle" x="35" y="50" text-anchor="start" dy="0em" style="opacity: 1; font-family: 'Open Sans', verdana, arial, sans-serif; font-size: 17px; fill: rgb(42, 63, 95); fill-opacity: 1; white-space: pre;"><tspan class="line" dy="0em" x="35" y="50">Fermat Spiral (r = c√t)</tspan><tspan class="line" dy="1.3em" x="35" y="50">Also known as parabolic spiral</tspan></text></g><g class="g-xtitle"><text class="xtitle" x="350" y="460.3" text-anchor="middle" style="opacity: 1; font-family: 'Open Sans', verdana, arial, sans-serif; font-size: 14px; fill: rgb(42, 63, 95); fill-opacity: 1; white-space: pre;">x</text></g><g class="g-ytitle"><text class="ytitle" transform="rotate(-90,30.146875,260)" x="30.146875" y="260" text-anchor="middle" style="opacity: 1; font-family: 'Open Sans', verdana, arial, sans-serif; font-size: 14px; fill: rgb(42, 63, 95); fill-opacity: 1; white-space: pre;">y</text></g></g></svg>